HIERARCHY
ROOT Hips
{
	OFFSET -3.958830 18.904000 13.208200
	CHANNELS 6 Xposition Yposition Zposition Zrotation Yrotation Xrotation 
	JOINT LHipJoint
	{
		OFFSET 0.000000 0.000000 0.000000
		CHANNELS 3 Zrotation Yrotation Xrotation
		JOINT LeftUpLeg
		{
			OFFSET 1.800000 -1.400000 0.085000
			CHANNELS 3 Zrotation Yrotation Xrotation
			JOINT LeftLeg
			{
				OFFSET 2.215000 -6.000000 0.000000
				CHANNELS 3 Zrotation Yrotation Xrotation
				JOINT LeftFoot
				{
					OFFSET 2.500000 -6.900000 0.000000
					CHANNELS 3 Zrotation Yrotation Xrotation
					JOINT LeftToeBase
					{
						OFFSET 0.200000 -0.500000 1.950000
						CHANNELS 3 Zrotation Yrotation Xrotation
						End Site
						{
							OFFSET 0.000000 0.000000 0.000000
						}
					}
				}
			}
		}
	}
	JOINT RHipJoint
	{
		OFFSET 0.000000 0.000000 0.000000
		CHANNELS 3 Zrotation Yrotation Xrotation
		JOINT RightUpLeg
		{
			OFFSET -1.800000 -1.400000 0.085000
			CHANNELS 3 Zrotation Yrotation Xrotation
			JOINT RightLeg
			{
				OFFSET -2.215000 -6.000000 0.000000
				CHANNELS 3 Zrotation Yrotation Xrotation
				JOINT RightFoot
				{
					OFFSET -2.500000 -6.900000 0.000000
					CHANNELS 3 Zrotation Yrotation Xrotation
					JOINT RightToeBase
					{
						OFFSET -0.200000 -0.500000 1.950000
						CHANNELS 3 Zrotation Yrotation Xrotation
						End Site
						{
							OFFSET 0.000000 0.000000 0.000000
						}
					}
				}
			}
		}
	}
	JOINT LowerBack
	{
		OFFSET 0.000000 0.000000 0.000000
		CHANNELS 3 Zrotation Yrotation Xrotation
		JOINT Spine
		{
			OFFSET -0.087000 1.940000 -0.288900
			CHANNELS 3 Zrotation Yrotation Xrotation
			JOINT Spine1
			{
				OFFSET 0.000000 1.950000 0.060000
				CHANNELS 3 Zrotation Yrotation Xrotation
				JOINT Neck
				{
					OFFSET 0.000000 0.000000 0.000000
					CHANNELS 3 Zrotation Yrotation Xrotation
					JOINT Neck1
					{
						OFFSET 0.000000 1.600000 0.340000
						CHANNELS 3 Zrotation Yrotation Xrotation
						JOINT Head
						{
							OFFSET 0.000000 1.667000 -0.240000
							CHANNELS 3 Zrotation Yrotation Xrotation
							End Site
							{
								OFFSET 0.000000 0.000000 0.000000
							}
						}
					}
				}
				JOINT LeftShoulder
				{
					OFFSET 0.000000 0.000000 0.000000
					CHANNELS 3 Zrotation Yrotation Xrotation
					JOINT LeftArm
					{
						OFFSET 2.700000 1.550000 -0.730000
						CHANNELS 3 Zrotation Yrotation Xrotation
						JOINT LeftForeArm
						{
							OFFSET 5.450000 0.000000 0.000000
							CHANNELS 3 Zrotation Yrotation Xrotation
							JOINT LeftHand
							{
								OFFSET 3.450000 0.000000 0.000000
								CHANNELS 3 Zrotation Yrotation Xrotation
								JOINT LeftHandIndex1
								{
									OFFSET 0.750000 0.000000 0.000000
									CHANNELS 3 Zrotation Yrotation Xrotation
									End Site
									{
										OFFSET 0.000000 0.000000 0.000000
									}
								}
							}
						}
					}
				}
				JOINT RightShoulder
				{
					OFFSET 0.000000 0.000000 0.000000
					CHANNELS 3 Zrotation Yrotation Xrotation
					JOINT RightArm
					{
						OFFSET -2.700000 1.550000 -0.730000
						CHANNELS 3 Zrotation Yrotation Xrotation
						JOINT RightForeArm
						{
							OFFSET -5.450000 0.000000 0.000000
							CHANNELS 3 Zrotation Yrotation Xrotation
							JOINT RightHand
							{
								OFFSET -3.450000 0.000000 0.000000
								CHANNELS 3 Zrotation Yrotation Xrotation
								JOINT RightHandIndex1
								{
									OFFSET -0.750000 0.000000 0.000000
									CHANNELS 3 Zrotation Yrotation Xrotation
									End Site
									{
										OFFSET 0.000000 0.000000 0.000000
									}
								}
							}
						}
					}
				}
			}
		}
	}
}
MOTION
Frames: 8
Frame Time: 0.016667
-1.324780 13.141520 -3.093490 -53.404457 -57.417696 -0.691606 -16.171893 8.808377 4.707068 -26.238432 -17.976724 -69.287900 123.451386 -18.988074 35.029114 3.057344 15.806282 -0.303207 0.672670 0.632490 0.662160 18.164130 -5.468483 6.906903 -52.437410 19.145354 -38.048306 130.335717 -27.188760 13.746425 -2.678020 -9.921572 1.118616 0.246610 -0.089370 0.060360 -4.423493 -0.690159 -10.740569 5.532132 10.149154 60.885694 -17.581173 16.951905 21.178572 10.909402 -1.562696 -18.001375 -7.651669 9.244818 64.826241 0.271230 2.285850 -11.030330 -17.537340 -26.519678 12.221137 -25.328112 -4.382566 1.497091 7.438370 5.602318 -0.206505 -3.630338 2.717256 0.505450 -0.185170 0.314580 0.060430 -6.919064 39.177758 0.301634 -1.383001 21.841685 -24.062454 -62.752956 29.671951 -21.270628 3.149884 -1.627733 0.031560 0.300900 -0.184010 -0.083900 
-1.354790 13.144670 -2.997670 -51.540289 -58.603417 -4.945204 -16.209460 9.016459 5.173854 -18.067237 -17.055851 -65.278926 130.411737 -21.050276 34.183749 3.040453 15.479636 -0.186307 0.729780 0.666560 0.737200 18.056711 -5.708814 6.249575 -49.995211 19.647064 -39.879409 122.429673 -39.888285 20.400548 -2.946802 -11.051383 0.813355 0.280210 -0.166340 0.034880 -4.156172 -1.131610 -10.667644 4.645768 9.818088 63.589854 -15.404281 16.928619 21.881568 10.141009 0.475917 -19.293691 -4.961287 7.501237 69.822990 -0.866400 2.614920 -10.636030 -21.894515 -27.929788 11.586969 -23.897072 -5.766279 1.426975 8.415728 5.572864 -0.189730 -3.570279 2.664094 0.584990 -0.226120 0.371560 0.092560 -1.336704 38.989364 3.864246 1.272660 20.007663 -25.198793 -62.683048 29.341212 -21.378100 3.045509 -1.707705 -0.000510 0.308910 -0.253550 -0.136830 
-1.387760 13.123390 -2.903740 -52.128392 -59.213105 -6.355904 -16.175418 8.889864 5.532379 -8.121669 -15.958914 -60.779371 133.531810 -24.175019 33.933684 2.961170 15.018479 -0.137716 0.859280 0.820560 0.812230 18.057811 -5.930459 5.964562 -47.515276 19.970277 -42.919810 106.941739 -49.517510 31.509587 -3.138226 -11.768417 0.534407 0.335220 -0.248020 0.083920 -4.346451 -0.907056 -10.636531 6.693238 6.865352 65.609836 -14.905356 16.381153 22.585876 9.057815 1.188072 -20.140104 -5.427058 7.558647 74.487933 3.371980 1.175790 -14.336040 -23.421873 -29.305932 10.802522 -24.149727 -8.787149 1.364267 10.330860 4.948541 -0.351390 -3.525697 2.713859 0.663770 -0.324520 0.489560 0.084920 2.377516 38.149790 6.109445 5.623316 19.571994 -25.728203 -60.686110 28.541592 -20.896188 2.940878 -1.744386 0.082410 0.301590 -0.278710 -0.122640 
-1.384910 13.094670 -2.819650 -53.280698 -59.066068 -7.211352 -16.141921 8.740608 5.712699 1.978454 -15.392412 -54.932639 126.024801 -34.105195 44.859887 2.897960 15.360375 -0.368659 1.053390 1.011200 0.953540 18.061573 -5.849986 6.027464 -43.632089 21.094588 -44.102525 81.607661 -53.213552 48.593393 -3.467961 -13.171788 0.069632 0.450160 -0.453190 0.101900 -4.512715 -0.860536 -10.665347 8.833216 3.286263 68.290534 -15.264035 15.429839 22.529881 8.434046 2.553019 -21.104505 -3.885614 6.218622 79.738491 6.530160 0.502700 -19.316660 -26.306911 -31.086751 10.126404 -21.739982 -11.120245 0.158223 13.544948 3.793241 -0.761630 -3.409470 2.804441 0.826550 -0.477710 0.629770 0.060350 6.699248 37.398160 7.807663 11.203229 18.879911 -26.120615 -57.285318 29.413395 -20.485185 2.805290 -1.795909 0.127310 0.234910 -0.348420 -0.192930 
-1.385590 12.996100 -2.762980 -54.344860 -57.552395 -5.756258 -16.194252 8.192998 6.318203 13.357277 -17.818933 -52.606195 89.662606 -44.550844 86.303643 4.103684 21.082012 -1.585720 1.203950 1.155800 1.132190 18.088312 -5.483438 5.919838 -39.699492 19.955608 -46.704536 53.531042 -50.803172 66.959758 -3.901135 -15.374328 -0.509376 0.514800 -0.587980 0.127460 -4.477116 -0.986871 -10.902189 10.901741 -0.445652 68.491538 -14.888101 13.978722 21.855408 8.257161 3.977782 -21.079435 -0.975894 3.802197 84.693675 6.187640 0.833200 -22.777540 -28.023178 -32.248080 9.123907 -20.590841 -14.713241 -1.785466 17.372982 0.586161 -1.639731 -3.324064 2.849093 0.913410 -0.561100 0.754160 0.050480 9.124868 36.102717 8.910879 20.295070 17.119189 -25.214138 -53.824137 30.910280 -20.407551 2.563610 -1.737452 0.176790 0.222320 -0.432550 -0.238620 
-1.397590 12.911420 -2.720150 -52.113437 -58.957766 -7.853114 -16.157417 9.040776 5.972080 16.923446 -16.062796 -49.819029 61.505815 -37.895934 114.104908 4.853301 24.978178 -2.295958 1.324790 1.312560 1.222480 18.124460 -5.909724 5.646240 -33.351927 18.621274 -49.368403 28.115973 -39.992545 81.214496 -3.906233 -16.317750 -0.791608 0.576500 -0.686420 0.133980 -4.277126 -1.276658 -10.577815 8.949885 -0.632352 69.108421 -13.697987 13.516851 22.045741 7.316537 4.473147 -22.249531 -0.745506 3.216842 87.698762 7.233340 1.571640 -23.727680 -29.255223 -34.649623 8.720405 -17.994643 -16.624413 -5.919372 22.528691 -5.294395 -3.407797 -3.203763 3.000312 0.922930 -0.614020 0.831220 0.063550 12.420602 37.915505 10.405803 26.047782 13.565276 -24.604263 -46.187722 30.523360 -17.306147 2.460512 -1.793792 0.247310 0.175770 -0.516160 -0.241290 
-1.381490 12.784630 -2.672450 -48.517038 -60.216444 -10.285046 -16.067104 9.723448 5.829106 19.721413 -15.806113 -48.870737 47.544306 -25.479166 129.850138 3.905327 21.023279 -1.721297 1.356550 1.361700 1.271180 18.190575 -6.660069 4.981505 -24.177809 15.158762 -52.261841 5.821398 -21.992569 84.715263 -3.073614 -13.699809 -0.293675 0.624820 -0.704130 0.117150 -4.151409 -1.318758 -10.238541 6.774403 -1.347383 69.279232 -13.147045 12.203080 21.544615 6.385673 4.144147 -22.293460 -1.695046 3.888701 88.471651 7.032300 3.475130 -24.893310 -29.157622 -36.392395 7.504661 -16.718068 -18.900097 -10.043348 28.186907 -10.444642 -5.781829 -3.182379 3.000905 0.959080 -0.622990 0.863580 0.062260 14.553664 38.980664 11.493710 31.200244 12.401160 -18.799293 -33.025837 23.996970 -10.155143 2.283605 -1.698205 0.216680 0.215870 -0.530400 -0.270190 
-1.370570 12.636530 -2.615230 -43.571497 -62.161427 -14.566971 -15.959695 9.750846 6.477697 25.897002 -16.494953 -47.566185 39.144270 -6.702153 142.076976 2.897501 16.653365 -0.835372 1.277460 1.264340 1.229540 18.251189 -7.203505 4.008079 -13.841748 10.755569 -51.825516 -9.793584 -5.973626 69.912775 -2.018292 -9.526955 0.760511 0.583860 -0.618210 0.127160 -3.908381 -1.334726 -10.132390 3.909317 -1.844084 70.773849 -11.598923 11.079800 20.441735 4.922820 2.963997 -21.869177 -4.648585 5.174531 86.916599 6.992370 4.354350 -25.105170 -28.649907 -38.011057 5.864523 -15.455036 -20.862654 -13.215290 31.594350 -17.015054 -8.509421 -3.224903 2.904467 0.973380 -0.577560 0.826370 0.041580 17.492850 40.397152 12.924963 33.101419 10.193071 -13.333229 -22.453874 18.330033 -5.292884 2.255220 -1.513237 0.161780 0.269270 -0.457960 -0.278070 
